<svg width="406.228516" height="337.448914" viewBox="0 0 406.229 337.449" fill="none" xmlns="http://www.w3.org/2000/svg" xmlns:xlink="http://www.w3.org/1999/xlink">
	<desc>
			Created with Pixso.
	</desc>
	<defs>
		<filter id="filter_22_1561_dd" x="69.666016" y="32.282959" width="265.812500" height="305.798584" filterUnits="userSpaceOnUse" color-interpolation-filters="sRGB">
			<feFlood flood-opacity="0" result="BackgroundImageFix"/>
			<feColorMatrix in="SourceAlpha" type="matrix" values="0 0 0 0 0 0 0 0 0 0 0 0 0 0 0 0 0 0 127 0" result="hardAlpha"/>
			<feMorphology radius="-9.84355" in="" result="BackgroundImageFix"/>
			<feOffset dx="0" dy="16.4059"/>
			<feGaussianBlur stdDeviation="18.3199"/>
			<feComposite in2="hardAlpha" operator="out" k2="-1" k3="1"/>
			<feColorMatrix type="matrix" values="0 0 0 0 0 0 0 0 0 0 0 0 0 0 0 0 0 0 0.3 0"/>
			<feBlend mode="normal" in2="BackgroundImageFix" result="effect_dropShadow_1"/>
			<feBlend mode="normal" in="SourceGraphic" in2="effect_dropShadow_1" result="shape"/>
		</filter>
		<clipPath id="clip22_1524">
			<rect id="Обложка карточки" rx="31.901487" width="405.550598" height="336.771210" transform="translate(0.338854 0.338854)" fill="white" fill-opacity="0"/>
		</clipPath>
	</defs>
	<rect id="Обложка карточки" rx="31.901487" width="405.550598" height="336.771210" transform="translate(0.338854 0.338854)" fill="#99D100" fill-opacity="1.000000"/>
	<g clip-path="url(#clip22_1524)">
		<rect id="Frame 2043683103" rx="20.104986" width="113.729599" height="151.866653" transform="translate(-51.127987 -114.629333) rotate(10.000001)" fill="#BCEC30" fill-opacity="1.000000"/>
		<path id="?" d="M-12.01 -29.36Q-13.45 -27.87 -13.91 -25.27L-4.66 -23.64Q-4.51 -24.47 -4.09 -25.13Q-3.8 -25.59 -3.38 -25.96Q-2.35 -26.88 -0.32 -28.08Q1.54 -29.19 2.74 -30.13Q3.95 -31.08 4.97 -32.59Q5.99 -34.1 6.37 -36.22Q6.79 -38.61 6.11 -40.63Q5.48 -42.52 3.87 -44.09Q0.56 -47.33 -5.62 -48.42Q-11.13 -49.39 -15.4 -48.05Q-18.08 -47.2 -20.17 -45.59Q-21.4 -44.65 -22.43 -43.44L-15.41 -37.92Q-14.49 -39 -13.33 -39.66Q-12.79 -39.98 -12.19 -40.2Q-11.67 -40.39 -11.14 -40.5Q-9.75 -40.79 -8.25 -40.52Q-6.23 -40.17 -5.12 -39.03Q-4.51 -38.4 -4.31 -37.67Q-4.15 -37.06 -4.27 -36.38Q-4.32 -36.11 -4.41 -35.85Q-4.69 -35.08 -5.37 -34.45Q-6.26 -33.63 -8.01 -32.49Q-10.55 -30.85 -12.01 -29.36ZM-14.65 -12.02Q-13.45 -11.04 -11.71 -10.73Q-9.84 -10.41 -8.3 -10.98Q-7.71 -11.21 -7.16 -11.57Q-6.17 -12.23 -5.58 -13.14Q-5.01 -14.03 -4.81 -15.15Q-4.57 -16.49 -4.93 -17.65Q-5.2 -18.52 -5.79 -19.28Q-6.11 -19.69 -6.49 -20.03Q-7.78 -21.19 -9.79 -21.55Q-11.82 -21.9 -13.43 -21.24Q-13.88 -21.05 -14.3 -20.78Q-15.08 -20.28 -15.62 -19.59Q-16.37 -18.6 -16.61 -17.23Q-16.81 -16.11 -16.58 -15.08Q-16.34 -14.02 -15.64 -13.06Q-15.2 -12.47 -14.65 -12.02Z" fill="#FFFFFF" fill-opacity="1.000000" fill-rule="evenodd"/>
		<path id="?" d="M-13.91 -25.27Q-13.45 -27.87 -12.01 -29.36Q-10.55 -30.85 -8.01 -32.49Q-6.26 -33.63 -5.37 -34.45Q-4.46 -35.29 -4.27 -36.38Q-4 -37.89 -5.12 -39.03Q-6.23 -40.17 -8.25 -40.52Q-10.33 -40.89 -12.19 -40.2Q-14.06 -39.51 -15.41 -37.92L-22.43 -43.44Q-19.65 -46.71 -15.4 -48.05Q-11.13 -49.39 -5.62 -48.42Q0.56 -47.33 3.87 -44.09Q7.19 -40.85 6.37 -36.22Q5.99 -34.1 4.97 -32.59Q3.95 -31.08 2.74 -30.13Q1.54 -29.19 -0.32 -28.08Q-2.35 -26.88 -3.38 -25.96Q-4.41 -25.05 -4.66 -23.64L-13.91 -25.27ZM-11.71 -10.73Q-14.26 -11.18 -15.64 -13.06Q-17.02 -14.94 -16.61 -17.23Q-16.2 -19.57 -14.3 -20.78Q-12.39 -22 -9.79 -21.55Q-7.19 -21.09 -5.79 -19.28Q-4.4 -17.49 -4.81 -15.15Q-5.22 -12.86 -7.16 -11.57Q-9.1 -10.28 -11.71 -10.73Z" stroke="#202027" stroke-opacity="1.000000" stroke-width="0.549820"/>
		<rect id="Frame 2043683103" rx="20.104986" width="113.729599" height="151.866653" transform="translate(-51.127987 -114.629333) rotate(10.000001)" stroke="#202027" stroke-opacity="1.000000" stroke-width="0.681525"/>
		<rect id="Frame 2043683100" rx="20.104986" width="113.729599" height="151.866653" transform="translate(68.159119 -93.595764) rotate(10.000001)" fill="#BCEC30" fill-opacity="1.000000"/>
		<path id="?" d="M107.28 -8.32Q105.84 -6.84 105.38 -4.23L114.63 -2.6Q114.78 -3.43 115.2 -4.09Q115.49 -4.55 115.91 -4.93Q116.93 -5.85 118.96 -7.05Q120.82 -8.16 122.02 -9.1Q123.24 -10.05 124.25 -11.56Q125.28 -13.07 125.65 -15.18Q126.08 -17.58 125.4 -19.6Q124.76 -21.49 123.16 -23.06Q119.85 -26.3 113.67 -27.39Q108.16 -28.36 103.89 -27.02Q101.21 -26.17 99.11 -24.56Q97.89 -23.61 96.86 -22.41L103.88 -16.89Q104.8 -17.97 105.95 -18.63Q106.5 -18.94 107.09 -19.16Q107.61 -19.36 108.15 -19.47Q109.54 -19.75 111.04 -19.49Q113.06 -19.13 114.16 -18Q114.78 -17.37 114.98 -16.63Q115.14 -16.03 115.02 -15.35Q114.97 -15.08 114.88 -14.82Q114.6 -14.05 113.92 -13.42Q113.02 -12.6 111.28 -11.45Q108.74 -9.82 107.28 -8.32ZM104.63 9.01Q105.83 9.99 107.58 10.3Q109.45 10.63 110.98 10.05Q111.58 9.83 112.13 9.46Q113.12 8.81 113.71 7.89Q114.28 7.01 114.48 5.89Q114.71 4.54 114.36 3.38Q114.09 2.51 113.49 1.75Q113.18 1.34 112.8 1Q111.51 -0.16 109.5 -0.51Q107.46 -0.87 105.86 -0.2Q105.41 -0.02 104.99 0.25Q104.2 0.75 103.67 1.44Q102.92 2.43 102.67 3.81Q102.47 4.93 102.71 5.95Q102.95 7.01 103.65 7.97Q104.08 8.56 104.63 9.01Z" fill="#FFFFFF" fill-opacity="1.000000" fill-rule="evenodd"/>
		<path id="?" d="M105.38 -4.23Q105.84 -6.84 107.28 -8.32Q108.74 -9.82 111.28 -11.45Q113.02 -12.6 113.92 -13.42Q114.82 -14.25 115.02 -15.35Q115.28 -16.86 114.16 -18Q113.06 -19.13 111.04 -19.49Q108.96 -19.86 107.09 -19.16Q105.23 -18.47 103.88 -16.89L96.86 -22.41Q99.64 -25.67 103.89 -27.02Q108.16 -28.36 113.67 -27.39Q119.85 -26.3 123.16 -23.06Q126.47 -19.82 125.65 -15.18Q125.28 -13.07 124.25 -11.56Q123.24 -10.05 122.02 -9.1Q120.82 -8.16 118.96 -7.05Q116.93 -5.85 115.91 -4.93Q114.88 -4.01 114.63 -2.6L105.38 -4.23ZM107.58 10.3Q105.03 9.85 103.65 7.97Q102.27 6.09 102.67 3.81Q103.09 1.46 104.99 0.25Q106.9 -0.97 109.5 -0.51Q112.1 -0.05 113.49 1.75Q114.89 3.54 114.48 5.89Q114.07 8.17 112.13 9.46Q110.18 10.76 107.58 10.3Z" stroke="#202027" stroke-opacity="1.000000" stroke-width="0.549820"/>
		<rect id="Frame 2043683100" rx="20.104986" width="113.729599" height="151.866653" transform="translate(68.159119 -93.595764) rotate(10.000001)" stroke="#202027" stroke-opacity="1.000000" stroke-width="0.681525"/>
		<rect id="Frame 2043683094" rx="20.104986" width="113.729599" height="151.866653" transform="translate(187.446228 -72.562317) rotate(10.000001)" fill="#BCEC30" fill-opacity="1.000000"/>
		<path id="?" d="M225.81 12.31Q224.02 14.15 223.45 17.37L234.92 19.4Q235.1 18.37 235.62 17.55Q235.98 16.98 236.5 16.51Q237.77 15.37 240.29 13.89Q242.6 12.51 244.08 11.34Q245.59 10.17 246.85 8.3Q248.12 6.43 248.58 3.8Q249.11 0.84 248.27 -1.67Q247.48 -4.01 245.49 -5.96Q241.39 -9.97 233.73 -11.32Q226.9 -12.53 221.61 -10.87Q218.28 -9.82 215.69 -7.82Q214.16 -6.65 212.89 -5.15L221.59 1.69Q222.73 0.35 224.16 -0.47Q224.84 -0.86 225.58 -1.13Q226.22 -1.37 226.89 -1.51Q228.61 -1.86 230.47 -1.53Q232.97 -1.09 234.34 0.32Q235.1 1.09 235.35 2.01Q235.55 2.76 235.4 3.6Q235.34 3.94 235.22 4.25Q234.88 5.21 234.03 5.99Q232.93 7.01 230.76 8.43Q227.61 10.45 225.81 12.31ZM222.53 33.79Q224.02 35.01 226.18 35.39Q228.5 35.8 230.4 35.08Q231.14 34.81 231.82 34.35Q233.04 33.54 233.78 32.4Q234.48 31.31 234.73 29.92Q235.02 28.26 234.58 26.82Q234.25 25.74 233.51 24.79Q233.12 24.28 232.65 23.86Q231.05 22.43 228.56 21.99Q226.04 21.54 224.04 22.37Q223.49 22.6 222.97 22.93Q222 23.55 221.34 24.41Q220.4 25.63 220.1 27.34Q219.85 28.73 220.14 30Q220.44 31.31 221.31 32.5Q221.85 33.23 222.53 33.79Z" fill="#FFFFFF" fill-opacity="1.000000" fill-rule="evenodd"/>
		<path id="?" d="M223.45 17.37Q224.02 14.15 225.81 12.31Q227.61 10.45 230.76 8.43Q232.93 7.01 234.03 5.99Q235.16 4.95 235.4 3.6Q235.73 1.73 234.34 0.32Q232.97 -1.09 230.47 -1.53Q227.89 -1.99 225.58 -1.13Q223.27 -0.27 221.59 1.69L212.89 -5.15Q216.33 -9.2 221.61 -10.87Q226.9 -12.53 233.73 -11.32Q241.39 -9.97 245.49 -5.96Q249.6 -1.94 248.58 3.8Q248.12 6.43 246.85 8.3Q245.59 10.17 244.08 11.34Q242.6 12.51 240.29 13.89Q237.77 15.37 236.5 16.51Q235.23 17.65 234.92 19.4L223.45 17.37ZM226.18 35.39Q223.02 34.83 221.31 32.5Q219.6 30.17 220.1 27.34Q220.61 24.43 222.97 22.93Q225.33 21.42 228.56 21.99Q231.78 22.56 233.51 24.79Q235.24 27.01 234.73 29.92Q234.23 32.75 231.82 34.35Q229.41 35.96 226.18 35.39Z" stroke="#202027" stroke-opacity="1.000000" stroke-width="0.549820"/>
		<rect id="Frame 2043683094" rx="20.104986" width="113.729599" height="151.866653" transform="translate(187.446228 -72.562317) rotate(10.000001)" stroke="#202027" stroke-opacity="1.000000" stroke-width="0.681525"/>
		<rect id="Frame 2043683095" rx="20.104986" width="113.729599" height="151.866653" transform="translate(306.733337 -51.528805) rotate(10.000001)" fill="#BCEC30" fill-opacity="1.000000"/>
		<path id="?" d="M345.1 33.34Q343.31 35.18 342.74 38.41L354.21 40.43Q354.39 39.4 354.91 38.58Q355.27 38.01 355.79 37.55Q357.06 36.41 359.58 34.92Q361.88 33.54 363.37 32.38Q364.88 31.2 366.13 29.33Q367.41 27.46 367.87 24.83Q368.4 21.87 367.55 19.36Q366.77 17.02 364.78 15.08Q360.67 11.06 353.01 9.71Q346.19 8.51 340.9 10.17Q337.57 11.22 334.97 13.22Q333.45 14.39 332.18 15.88L340.88 22.72Q342.02 21.39 343.45 20.57Q344.13 20.18 344.87 19.9Q345.51 19.66 346.17 19.53Q347.89 19.17 349.75 19.5Q352.26 19.94 353.63 21.35Q354.39 22.13 354.63 23.04Q354.83 23.79 354.69 24.63Q354.63 24.97 354.51 25.29Q354.17 26.24 353.32 27.02Q352.22 28.04 350.05 29.46Q346.9 31.49 345.1 33.34ZM341.82 54.83Q343.3 56.04 345.47 56.42Q347.79 56.83 349.68 56.12Q350.43 55.84 351.1 55.39Q352.33 54.57 353.06 53.44Q353.77 52.34 354.01 50.95Q354.31 49.29 353.87 47.85Q353.54 46.77 352.8 45.83Q352.4 45.32 351.93 44.89Q350.33 43.46 347.84 43.02Q345.32 42.58 343.33 43.4Q342.77 43.64 342.26 43.97Q341.28 44.59 340.62 45.45Q339.69 46.67 339.38 48.37Q339.14 49.76 339.43 51.03Q339.72 52.35 340.6 53.54Q341.13 54.27 341.82 54.83Z" fill="#FFFFFF" fill-opacity="1.000000" fill-rule="evenodd"/>
		<path id="?" d="M342.74 38.41Q343.31 35.18 345.1 33.34Q346.9 31.49 350.05 29.46Q352.22 28.04 353.32 27.02Q354.45 25.99 354.69 24.63Q355.02 22.76 353.63 21.35Q352.26 19.94 349.75 19.5Q347.18 19.04 344.87 19.9Q342.56 20.76 340.88 22.72L332.18 15.88Q335.62 11.83 340.9 10.17Q346.19 8.51 353.01 9.71Q360.67 11.06 364.78 15.08Q368.89 19.09 367.87 24.83Q367.41 27.46 366.13 29.33Q364.88 31.2 363.37 32.38Q361.88 33.54 359.58 34.92Q357.06 36.41 355.79 37.55Q354.52 38.68 354.21 40.43L342.74 38.41ZM345.47 56.42Q342.31 55.86 340.6 53.54Q338.88 51.21 339.38 48.37Q339.9 45.47 342.26 43.97Q344.62 42.45 347.84 43.02Q351.07 43.59 352.8 45.83Q354.53 48.04 354.01 50.95Q353.51 53.79 351.1 55.39Q348.69 56.99 345.47 56.42Z" stroke="#202027" stroke-opacity="1.000000" stroke-width="0.549820"/>
		<rect id="Frame 2043683095" rx="20.104986" width="113.729599" height="151.866653" transform="translate(306.733337 -51.528805) rotate(10.000001)" stroke="#202027" stroke-opacity="1.000000" stroke-width="0.681525"/>
		<rect id="Frame 2043683101" rx="20.104986" width="113.729599" height="151.866653" transform="translate(426.020447 -30.495296) rotate(10.000001)" fill="#BCEC30" fill-opacity="1.000000"/>
		<path id="?" d="M465.14 54.78Q463.7 56.26 463.24 58.87L472.49 60.5Q472.64 59.67 473.06 59.01Q473.35 58.55 473.77 58.17Q474.79 57.25 476.83 56.05Q478.68 54.94 479.88 54Q481.1 53.05 482.11 51.54Q483.14 50.04 483.51 47.92Q483.94 45.52 483.26 43.5Q482.62 41.61 481.02 40.04Q477.71 36.8 471.53 35.71Q466.02 34.74 461.75 36.08Q459.07 36.93 456.97 38.54Q455.75 39.49 454.72 40.69L461.74 46.21Q462.66 45.14 463.81 44.47Q464.36 44.16 464.96 43.94Q465.47 43.74 466.01 43.63Q467.4 43.35 468.9 43.61Q470.92 43.97 472.02 45.1Q472.64 45.73 472.84 46.47Q473 47.07 472.88 47.75Q472.83 48.03 472.74 48.28Q472.46 49.05 471.78 49.68Q470.88 50.5 469.14 51.65Q466.6 53.28 465.14 54.78ZM462.49 72.11Q463.69 73.09 465.44 73.4Q467.31 73.73 468.84 73.15Q469.44 72.93 469.99 72.56Q470.98 71.91 471.57 70.99Q472.14 70.11 472.34 68.99Q472.57 67.64 472.22 66.48Q471.95 65.62 471.35 64.85Q471.04 64.44 470.66 64.1Q469.37 62.94 467.36 62.59Q465.32 62.23 463.72 62.9Q463.27 63.08 462.85 63.35Q462.06 63.85 461.53 64.54Q460.78 65.53 460.53 66.91Q460.33 68.03 460.57 69.05Q460.81 70.11 461.51 71.07Q461.94 71.66 462.49 72.11Z" fill="#FFFFFF" fill-opacity="1.000000" fill-rule="evenodd"/>
		<path id="?" d="M463.24 58.87Q463.7 56.26 465.14 54.78Q466.6 53.28 469.14 51.65Q470.88 50.5 471.78 49.68Q472.68 48.85 472.88 47.75Q473.14 46.24 472.02 45.1Q470.92 43.97 468.9 43.61Q466.82 43.24 464.96 43.94Q463.09 44.63 461.74 46.21L454.72 40.69Q457.5 37.43 461.75 36.08Q466.02 34.74 471.53 35.71Q477.71 36.8 481.02 40.04Q484.33 43.28 483.51 47.92Q483.14 50.04 482.11 51.54Q481.1 53.05 479.88 54Q478.68 54.94 476.83 56.05Q474.79 57.25 473.77 58.17Q472.74 59.09 472.49 60.5L463.24 58.87ZM465.44 73.4Q462.89 72.95 461.51 71.07Q460.13 69.19 460.53 66.91Q460.95 64.56 462.85 63.35Q464.76 62.13 467.36 62.59Q469.96 63.05 471.35 64.85Q472.75 66.64 472.34 68.99Q471.93 71.27 469.99 72.56Q468.04 73.86 465.44 73.4Z" stroke="#202027" stroke-opacity="1.000000" stroke-width="0.549820"/>
		<rect id="Frame 2043683101" rx="20.104986" width="113.729599" height="151.866653" transform="translate(426.020447 -30.495296) rotate(10.000001)" stroke="#202027" stroke-opacity="1.000000" stroke-width="0.681525"/>
		<rect id="Frame 2043683104" rx="20.104986" width="113.729599" height="151.866653" transform="translate(-78.762756 42.098942) rotate(10.000001)" fill="#BCEC30" fill-opacity="1.000000"/>
		<path id="?" d="M-39.64 127.37Q-41.08 128.86 -41.54 131.46L-32.29 133.09Q-32.15 132.26 -31.73 131.6Q-31.44 131.14 -31.02 130.77Q-29.99 129.85 -27.96 128.65Q-26.1 127.54 -24.9 126.6Q-23.68 125.65 -22.67 124.14Q-21.64 122.63 -21.27 120.51Q-20.85 118.12 -21.52 116.1Q-22.16 114.21 -23.76 112.64Q-27.07 109.4 -33.26 108.31Q-38.76 107.34 -43.03 108.68Q-45.71 109.53 -47.81 111.14Q-49.04 112.08 -50.06 113.29L-43.04 118.8Q-42.13 117.73 -40.97 117.07Q-40.43 116.75 -39.83 116.53Q-39.31 116.34 -38.77 116.23Q-37.39 115.94 -35.88 116.21Q-33.87 116.56 -32.76 117.7Q-32.14 118.33 -31.95 119.06Q-31.79 119.67 -31.91 120.35Q-31.95 120.62 -32.05 120.88Q-32.33 121.65 -33.01 122.28Q-33.9 123.1 -35.65 124.24Q-38.19 125.88 -39.64 127.37ZM-42.29 144.71Q-41.09 145.69 -39.34 145.99Q-37.47 146.32 -35.94 145.75Q-35.34 145.52 -34.8 145.16Q-33.81 144.5 -33.22 143.58Q-32.65 142.7 -32.45 141.58Q-32.21 140.24 -32.57 139.08Q-32.83 138.21 -33.43 137.44Q-33.75 137.03 -34.13 136.69Q-35.42 135.54 -37.43 135.18Q-39.46 134.82 -41.07 135.49Q-41.52 135.68 -41.93 135.95Q-42.72 136.45 -43.25 137.14Q-44.01 138.12 -44.25 139.5Q-44.45 140.62 -44.22 141.64Q-43.98 142.71 -43.27 143.66Q-42.84 144.25 -42.29 144.71Z" fill="#FFFFFF" fill-opacity="1.000000" fill-rule="evenodd"/>
		<path id="?" d="M-41.54 131.46Q-41.08 128.86 -39.64 127.37Q-38.19 125.88 -35.65 124.24Q-33.9 123.1 -33.01 122.28Q-32.1 121.44 -31.91 120.35Q-31.64 118.84 -32.76 117.7Q-33.87 116.56 -35.88 116.21Q-37.97 115.84 -39.83 116.53Q-41.69 117.22 -43.04 118.8L-50.06 113.29Q-47.29 110.02 -43.03 108.68Q-38.76 107.34 -33.26 108.31Q-27.07 109.4 -23.76 112.64Q-20.45 115.88 -21.27 120.51Q-21.64 122.63 -22.67 124.14Q-23.68 125.65 -24.9 126.6Q-26.1 127.54 -27.96 128.65Q-29.99 129.85 -31.02 130.77Q-32.04 131.68 -32.29 133.09L-41.54 131.46ZM-39.34 145.99Q-41.89 145.54 -43.27 143.66Q-44.66 141.78 -44.25 139.5Q-43.83 137.15 -41.93 135.95Q-40.03 134.72 -37.43 135.18Q-34.82 135.64 -33.43 137.44Q-32.03 139.24 -32.45 141.58Q-32.85 143.87 -34.8 145.16Q-36.74 146.45 -39.34 145.99Z" stroke="#202027" stroke-opacity="1.000000" stroke-width="0.549820"/>
		<rect id="Frame 2043683104" rx="20.104986" width="113.729599" height="151.866653" transform="translate(-78.762756 42.098942) rotate(10.000001)" stroke="#202027" stroke-opacity="1.000000" stroke-width="0.681525"/>
		<rect id="Frame 2043683096" rx="20.104986" width="113.729599" height="151.866653" transform="translate(40.524357 63.132572) rotate(10.000001)" fill="#BCEC30" fill-opacity="1.000000"/>
		<path id="?" d="M78.89 148Q77.1 149.84 76.53 153.07L88 155.09Q88.18 154.06 88.7 153.24Q89.06 152.67 89.58 152.21Q90.85 151.07 93.37 149.58Q95.67 148.21 97.16 147.04Q98.67 145.86 99.92 143.99Q101.2 142.12 101.66 139.5Q102.19 136.53 101.34 134.03Q100.56 131.68 98.57 129.74Q94.47 125.72 86.8 124.37Q79.98 123.17 74.69 124.83Q71.36 125.88 68.76 127.88Q67.24 129.05 65.97 130.54L74.67 137.38Q75.81 136.05 77.24 135.23Q77.92 134.84 78.66 134.56Q79.3 134.33 79.96 134.19Q81.68 133.83 83.55 134.16Q86.05 134.6 87.42 136.01Q88.18 136.79 88.43 137.7Q88.63 138.45 88.48 139.3Q88.42 139.63 88.3 139.95Q87.96 140.91 87.11 141.68Q86.01 142.71 83.84 144.12Q80.69 146.15 78.89 148ZM75.61 169.49Q77.09 170.7 79.26 171.08Q81.58 171.49 83.48 170.78Q84.22 170.5 84.89 170.05Q86.12 169.23 86.85 168.1Q87.56 167 87.8 165.62Q88.1 163.95 87.66 162.51Q87.33 161.44 86.59 160.49Q86.19 159.98 85.72 159.56Q84.13 158.12 81.63 157.68Q79.11 157.24 77.12 158.07Q76.56 158.3 76.05 158.63Q75.07 159.25 74.41 160.11Q73.48 161.33 73.18 163.04Q72.93 164.43 73.22 165.69Q73.51 167.01 74.39 168.2Q74.92 168.93 75.61 169.49Z" fill="#FFFFFF" fill-opacity="1.000000" fill-rule="evenodd"/>
		<path id="?" d="M76.53 153.07Q77.1 149.84 78.89 148Q80.69 146.15 83.84 144.12Q86.01 142.71 87.11 141.68Q88.24 140.65 88.48 139.3Q88.81 137.42 87.42 136.01Q86.05 134.6 83.55 134.16Q80.97 133.71 78.66 134.56Q76.35 135.42 74.67 137.38L65.97 130.54Q69.41 126.5 74.69 124.83Q79.98 123.17 86.8 124.37Q94.47 125.72 98.57 129.74Q102.68 133.75 101.66 139.5Q101.2 142.12 99.92 143.99Q98.67 145.86 97.16 147.04Q95.67 148.21 93.37 149.58Q90.85 151.07 89.58 152.21Q88.31 153.35 88 155.09L76.53 153.07ZM79.26 171.08Q76.1 170.53 74.39 168.2Q72.67 165.87 73.18 163.04Q73.69 160.13 76.05 158.63Q78.41 157.11 81.63 157.68Q84.86 158.25 86.59 160.49Q88.32 162.71 87.8 165.62Q87.3 168.45 84.89 170.05Q82.49 171.65 79.26 171.08Z" stroke="#202027" stroke-opacity="1.000000" stroke-width="0.549820"/>
		<rect id="Frame 2043683096" rx="20.104986" width="113.729599" height="151.866653" transform="translate(40.524357 63.132572) rotate(10.000001)" stroke="#202027" stroke-opacity="1.000000" stroke-width="0.681525"/>
		<rect id="Frame 2043683112" rx="20.104986" width="113.729599" height="151.866653" transform="translate(159.810486 84.165955) rotate(10.000001)" fill="#BCEC30" fill-opacity="1.000000"/>
		<path id="?" d="M198.93 169.44Q197.49 170.93 197.03 173.53L206.28 175.16Q206.43 174.33 206.85 173.67Q207.14 173.21 207.56 172.83Q208.58 171.91 210.62 170.71Q212.48 169.6 213.68 168.66Q214.89 167.71 215.9 166.2Q216.93 164.7 217.31 162.58Q217.73 160.18 217.05 158.16Q216.41 156.27 214.81 154.71Q211.5 151.47 205.32 150.38Q199.81 149.4 195.54 150.75Q192.86 151.59 190.76 153.2Q189.54 154.15 188.51 155.35L195.53 160.87Q196.45 159.8 197.6 159.13Q198.15 158.82 198.75 158.6Q199.26 158.41 199.8 158.3Q201.19 158.01 202.69 158.27Q204.71 158.63 205.82 159.77Q206.43 160.39 206.63 161.13Q206.79 161.74 206.67 162.42Q206.62 162.69 206.53 162.94Q206.25 163.71 205.57 164.34Q204.68 165.17 202.93 166.31Q200.39 167.94 198.93 169.44ZM196.29 186.77Q197.48 187.75 199.23 188.06Q201.1 188.39 202.63 187.82Q203.23 187.59 203.78 187.23Q204.77 186.57 205.36 185.65Q205.93 184.77 206.13 183.65Q206.36 182.31 206.01 181.14Q205.74 180.28 205.15 179.51Q204.83 179.1 204.45 178.76Q203.16 177.6 201.15 177.25Q199.12 176.89 197.51 177.56Q197.06 177.75 196.64 178.01Q195.86 178.51 195.32 179.21Q194.57 180.19 194.32 181.57Q194.13 182.69 194.36 183.71Q194.6 184.77 195.3 185.73Q195.74 186.32 196.29 186.77Z" fill="#FFFFFF" fill-opacity="1.000000" fill-rule="evenodd"/>
		<path id="?" d="M197.03 173.53Q197.49 170.93 198.93 169.44Q200.39 167.94 202.93 166.31Q204.68 165.17 205.57 164.34Q206.47 163.51 206.67 162.42Q206.94 160.91 205.82 159.77Q204.71 158.63 202.69 158.27Q200.61 157.91 198.75 158.6Q196.88 159.29 195.53 160.87L188.51 155.35Q191.29 152.09 195.54 150.75Q199.81 149.4 205.32 150.38Q211.5 151.47 214.81 154.71Q218.13 157.95 217.31 162.58Q216.93 164.7 215.9 166.2Q214.89 167.71 213.68 168.66Q212.48 169.6 210.62 170.71Q208.58 171.91 207.56 172.83Q206.53 173.75 206.28 175.16L197.03 173.53ZM199.23 188.06Q196.68 187.61 195.3 185.73Q193.92 183.85 194.32 181.57Q194.74 179.22 196.64 178.01Q198.55 176.79 201.15 177.25Q203.75 177.71 205.15 179.51Q206.54 181.3 206.13 183.65Q205.72 185.93 203.78 187.23Q201.84 188.52 199.23 188.06Z" stroke="#202027" stroke-opacity="1.000000" stroke-width="0.549820"/>
		<rect id="Frame 2043683112" rx="20.104986" width="113.729599" height="151.866653" transform="translate(159.810486 84.165955) rotate(10.000001)" stroke="#202027" stroke-opacity="1.000000" stroke-width="0.681525"/>
		<rect id="Frame 2043683098" rx="20.104986" width="113.729599" height="151.866653" transform="translate(279.097595 105.199463) rotate(10.000001)" fill="#BCEC30" fill-opacity="1.000000"/>
		<path id="?" d="M317.46 190.07Q315.68 191.91 315.1 195.14L326.57 197.16Q326.75 196.13 327.27 195.31Q327.63 194.74 328.15 194.27Q329.43 193.14 331.94 191.65Q334.25 190.27 335.74 189.11Q337.24 187.93 338.5 186.06Q339.77 184.19 340.23 181.56Q340.76 178.6 339.92 176.09Q339.13 173.75 337.15 171.81Q333.04 167.79 325.38 166.44Q318.55 165.23 313.26 166.9Q309.93 167.95 307.34 169.94Q305.81 171.11 304.54 172.61L313.24 179.45Q314.38 178.12 315.82 177.29Q316.49 176.91 317.23 176.63Q317.87 176.39 318.54 176.26Q320.26 175.9 322.12 176.23Q324.62 176.67 325.99 178.08Q326.76 178.86 327 179.77Q327.2 180.52 327.05 181.36Q326.99 181.7 326.88 182.02Q326.53 182.97 325.69 183.75Q324.58 184.77 322.41 186.19Q319.27 188.21 317.46 190.07ZM314.18 211.55Q315.67 212.77 317.83 213.15Q320.15 213.56 322.05 212.85Q322.79 212.57 323.47 212.12Q324.7 211.3 325.43 210.16Q326.13 209.07 326.38 207.68Q326.67 206.02 326.23 204.58Q325.9 203.5 325.16 202.55Q324.77 202.05 324.3 201.62Q322.7 200.19 320.21 199.75Q317.69 199.31 315.7 200.13Q315.14 200.36 314.62 200.7Q313.65 201.31 312.99 202.18Q312.05 203.4 311.75 205.1Q311.5 206.49 311.79 207.76Q312.09 209.08 312.96 210.26Q313.5 211 314.18 211.55Z" fill="#FFFFFF" fill-opacity="1.000000" fill-rule="evenodd"/>
		<path id="?" d="M315.1 195.14Q315.68 191.91 317.46 190.07Q319.27 188.21 322.41 186.19Q324.58 184.77 325.69 183.75Q326.81 182.72 327.05 181.36Q327.38 179.49 325.99 178.08Q324.62 176.67 322.12 176.23Q319.54 175.77 317.23 176.63Q314.92 177.49 313.24 179.45L304.54 172.61Q307.99 168.56 313.26 166.9Q318.55 165.23 325.38 166.44Q333.04 167.79 337.15 171.81Q341.25 175.82 340.23 181.56Q339.77 184.19 338.5 186.06Q337.24 187.93 335.74 189.11Q334.25 190.27 331.94 191.65Q329.43 193.14 328.15 194.27Q326.88 195.41 326.57 197.16L315.1 195.14ZM317.83 213.15Q314.67 212.59 312.96 210.26Q311.25 207.93 311.75 205.1Q312.26 202.19 314.62 200.7Q316.98 199.18 320.21 199.75Q323.43 200.32 325.16 202.55Q326.89 204.77 326.38 207.68Q325.88 210.51 323.47 212.12Q321.06 213.72 317.83 213.15Z" stroke="#202027" stroke-opacity="1.000000" stroke-width="0.549820"/>
		<rect id="Frame 2043683098" rx="20.104986" width="113.729599" height="151.866653" transform="translate(279.097595 105.199463) rotate(10.000001)" stroke="#202027" stroke-opacity="1.000000" stroke-width="0.681525"/>
		<rect id="Frame 2043683102" rx="20.104986" width="113.729599" height="151.866653" transform="translate(398.384705 126.233093) rotate(10.000001)" fill="#BCEC30" fill-opacity="1.000000"/>
		<path id="?" d="M437.51 211.51Q436.07 212.99 435.61 215.59L444.86 217.23Q445 216.4 445.42 215.74Q445.71 215.28 446.13 214.9Q447.16 213.98 449.19 212.78Q451.05 211.67 452.25 210.73Q453.46 209.78 454.48 208.27Q455.5 206.76 455.88 204.64Q456.3 202.25 455.62 200.23Q454.99 198.34 453.39 196.77Q450.07 193.53 443.89 192.44Q438.39 191.47 434.12 192.81Q431.43 193.66 429.34 195.27Q428.11 196.21 427.09 197.42L434.1 202.94Q435.02 201.86 436.18 201.2Q436.72 200.89 437.32 200.67Q437.84 200.47 438.37 200.36Q439.76 200.08 441.26 200.34Q443.28 200.7 444.39 201.83Q445 202.46 445.2 203.2Q445.36 203.8 445.24 204.48Q445.19 204.75 445.1 205.01Q444.82 205.78 444.14 206.41Q443.25 207.23 441.5 208.38Q438.96 210.01 437.51 211.51ZM434.86 228.84Q436.06 229.82 437.81 230.13Q439.68 230.46 441.21 229.88Q441.81 229.66 442.35 229.29Q443.34 228.63 443.93 227.72Q444.5 226.84 444.7 225.72Q444.94 224.37 444.58 223.21Q444.32 222.34 443.72 221.58Q443.4 221.17 443.02 220.83Q441.73 219.67 439.72 219.32Q437.69 218.96 436.08 219.63Q435.63 219.81 435.22 220.08Q434.43 220.58 433.9 221.27Q433.14 222.26 432.9 223.64Q432.7 224.76 432.93 225.78Q433.17 226.84 433.88 227.8Q434.31 228.39 434.86 228.84Z" fill="#FFFFFF" fill-opacity="1.000000" fill-rule="evenodd"/>
		<path id="?" d="M435.61 215.59Q436.07 212.99 437.51 211.51Q438.96 210.01 441.5 208.38Q443.25 207.23 444.14 206.41Q445.05 205.57 445.24 204.48Q445.51 202.97 444.39 201.83Q443.28 200.7 441.26 200.34Q439.18 199.97 437.32 200.67Q435.46 201.36 434.1 202.94L427.09 197.42Q429.86 194.16 434.12 192.81Q438.39 191.47 443.89 192.44Q450.07 193.53 453.39 196.77Q456.7 200.01 455.88 204.64Q455.5 206.76 454.48 208.27Q453.46 209.78 452.25 210.73Q451.05 211.67 449.19 212.78Q447.16 213.98 446.13 214.9Q445.11 215.82 444.86 217.23L435.61 215.59ZM437.81 230.13Q435.26 229.68 433.88 227.8Q432.49 225.92 432.9 223.64Q433.31 221.29 435.22 220.08Q437.12 218.86 439.72 219.32Q442.32 219.78 443.72 221.58Q445.12 223.37 444.7 225.72Q444.3 228 442.35 229.29Q440.41 230.59 437.81 230.13Z" stroke="#202027" stroke-opacity="1.000000" stroke-width="0.549820"/>
		<rect id="Frame 2043683102" rx="20.104986" width="113.729599" height="151.866653" transform="translate(398.384705 126.233093) rotate(10.000001)" stroke="#202027" stroke-opacity="1.000000" stroke-width="0.681525"/>
		<rect id="Frame 2043683109" rx="20.104986" width="113.729599" height="151.866653" transform="translate(-106.398499 198.827026) rotate(10.000001)" fill="#BCEC30" fill-opacity="1.000000"/>
		<path id="?" d="M-67.28 284.1Q-68.72 285.59 -69.18 288.19L-59.93 289.82Q-59.78 288.99 -59.36 288.33Q-59.07 287.87 -58.65 287.49Q-57.62 286.57 -55.59 285.38Q-53.73 284.26 -52.53 283.32Q-51.32 282.37 -50.31 280.86Q-49.28 279.36 -48.9 277.24Q-48.48 274.85 -49.16 272.82Q-49.8 270.93 -51.4 269.37Q-54.71 266.13 -60.89 265.04Q-66.4 264.07 -70.67 265.41Q-73.35 266.25 -75.44 267.86Q-76.67 268.81 -77.7 270.01L-70.68 275.53Q-69.76 274.46 -68.6 273.79Q-68.06 273.48 -67.46 273.26Q-66.94 273.07 -66.41 272.96Q-65.02 272.67 -63.52 272.93Q-61.5 273.29 -60.39 274.43Q-59.78 275.05 -59.58 275.79Q-59.42 276.4 -59.54 277.08Q-59.59 277.35 -59.68 277.6Q-59.96 278.38 -60.64 279Q-61.53 279.83 -63.28 280.97Q-65.82 282.6 -67.28 284.1ZM-69.92 301.43Q-68.72 302.41 -66.98 302.72Q-65.11 303.05 -63.58 302.48Q-62.98 302.25 -62.43 301.89Q-61.44 301.23 -60.85 300.31Q-60.28 299.43 -60.08 298.31Q-59.84 296.97 -60.2 295.81Q-60.47 294.94 -61.06 294.17Q-61.38 293.76 -61.76 293.42Q-63.05 292.26 -65.06 291.91Q-67.09 291.55 -68.7 292.22Q-69.15 292.41 -69.57 292.67Q-70.35 293.17 -70.89 293.87Q-71.64 294.85 -71.89 296.23Q-72.08 297.35 -71.85 298.37Q-71.61 299.44 -70.91 300.39Q-70.47 300.98 -69.92 301.43Z" fill="#FFFFFF" fill-opacity="1.000000" fill-rule="evenodd"/>
		<path id="?" d="M-69.18 288.19Q-68.72 285.59 -67.28 284.1Q-65.82 282.6 -63.28 280.97Q-61.53 279.83 -60.64 279Q-59.73 278.17 -59.54 277.08Q-59.27 275.57 -60.39 274.43Q-61.5 273.29 -63.52 272.93Q-65.6 272.57 -67.46 273.26Q-69.33 273.95 -70.68 275.53L-77.7 270.01Q-74.92 266.75 -70.67 265.41Q-66.4 264.07 -60.89 265.04Q-54.71 266.13 -51.4 269.37Q-48.08 272.61 -48.9 277.24Q-49.28 279.36 -50.31 280.86Q-51.32 282.37 -52.53 283.32Q-53.73 284.26 -55.59 285.38Q-57.62 286.57 -58.65 287.49Q-59.68 288.41 -59.93 289.82L-69.18 288.19ZM-66.98 302.72Q-69.53 302.27 -70.91 300.39Q-72.29 298.51 -71.89 296.23Q-71.47 293.88 -69.57 292.67Q-67.66 291.45 -65.06 291.91Q-62.46 292.37 -61.06 294.17Q-59.67 295.96 -60.08 298.31Q-60.49 300.59 -62.43 301.89Q-64.37 303.18 -66.98 302.72Z" stroke="#202027" stroke-opacity="1.000000" stroke-width="0.549820"/>
		<rect id="Frame 2043683109" rx="20.104986" width="113.729599" height="151.866653" transform="translate(-106.398499 198.827026) rotate(10.000001)" stroke="#202027" stroke-opacity="1.000000" stroke-width="0.681525"/>
		<rect id="Frame 2043683105" rx="20.104986" width="113.729599" height="151.866653" transform="translate(12.888614 219.860535) rotate(10.000001)" fill="#BCEC30" fill-opacity="1.000000"/>
		<path id="?" d="M51.25 304.73Q49.47 306.57 48.89 309.8L60.36 311.82Q60.54 310.79 61.06 309.97Q61.42 309.4 61.94 308.94Q63.22 307.8 65.73 306.31Q68.04 304.93 69.53 303.77Q71.03 302.59 72.29 300.72Q73.56 298.85 74.03 296.22Q74.55 293.26 73.71 290.75Q72.92 288.41 70.94 286.47Q66.83 282.45 59.17 281.1Q52.34 279.9 47.05 281.56Q43.72 282.61 41.13 284.6Q39.61 285.78 38.33 287.27L47.03 294.11Q48.17 292.78 49.61 291.95Q50.28 291.57 51.02 291.29Q51.66 291.05 52.33 290.92Q54.05 290.56 55.91 290.89Q58.41 291.33 59.78 292.74Q60.55 293.52 60.79 294.43Q60.99 295.18 60.84 296.02Q60.78 296.36 60.67 296.68Q60.32 297.63 59.48 298.41Q58.37 299.43 56.21 300.85Q53.06 302.88 51.25 304.73ZM47.97 326.22Q49.46 327.43 51.62 327.81Q53.94 328.22 55.84 327.51Q56.58 327.23 57.26 326.78Q58.49 325.96 59.22 324.82Q59.92 323.73 60.17 322.34Q60.46 320.68 60.02 319.24Q59.69 318.16 58.95 317.22Q58.56 316.71 58.09 316.28Q56.49 314.85 54 314.41Q51.48 313.97 49.49 314.79Q48.93 315.03 48.41 315.36Q47.44 315.98 46.78 316.84Q45.84 318.06 45.54 319.76Q45.29 321.15 45.58 322.42Q45.88 323.74 46.75 324.93Q47.29 325.66 47.97 326.22Z" fill="#FFFFFF" fill-opacity="1.000000" fill-rule="evenodd"/>
		<path id="?" d="M48.89 309.8Q49.47 306.57 51.25 304.73Q53.06 302.88 56.21 300.85Q58.37 299.43 59.48 298.41Q60.6 297.38 60.84 296.02Q61.17 294.15 59.78 292.74Q58.41 291.33 55.91 290.89Q53.33 290.43 51.02 291.29Q48.71 292.15 47.03 294.11L38.33 287.27Q41.78 283.22 47.05 281.56Q52.34 279.9 59.17 281.1Q66.83 282.45 70.94 286.47Q75.04 290.48 74.03 296.22Q73.56 298.85 72.29 300.72Q71.03 302.59 69.53 303.77Q68.04 304.93 65.73 306.31Q63.22 307.8 61.94 308.94Q60.67 310.07 60.36 311.82L48.89 309.8ZM51.62 327.81Q48.46 327.25 46.75 324.93Q45.04 322.6 45.54 319.76Q46.05 316.85 48.41 315.36Q50.77 313.84 54 314.41Q57.22 314.98 58.95 317.22Q60.68 319.43 60.17 322.34Q59.67 325.18 57.26 326.78Q54.85 328.38 51.62 327.81Z" stroke="#202027" stroke-opacity="1.000000" stroke-width="0.549820"/>
		<rect id="Frame 2043683105" rx="20.104986" width="113.729599" height="151.866653" transform="translate(12.888614 219.860535) rotate(10.000001)" stroke="#202027" stroke-opacity="1.000000" stroke-width="0.681525"/>
		<rect id="Frame 2043683106" rx="20.104986" width="113.729599" height="151.866653" transform="translate(132.175720 240.893982) rotate(10.000001)" fill="#BCEC30" fill-opacity="1.000000"/>
		<path id="?" d="M170.54 325.76Q168.75 327.61 168.18 330.83L179.65 332.85Q179.83 331.82 180.35 331.01Q180.71 330.44 181.23 329.97Q182.5 328.83 185.02 327.34Q187.32 325.97 188.81 324.8Q190.32 323.62 191.58 321.75Q192.85 319.88 193.31 317.26Q193.84 314.29 193 311.79Q192.21 309.44 190.22 307.5Q186.12 303.48 178.46 302.13Q171.63 300.93 166.34 302.59Q163.01 303.64 160.41 305.64Q158.89 306.81 157.62 308.3L166.32 315.14Q167.46 313.81 168.89 312.99Q169.57 312.6 170.31 312.32Q170.95 312.09 171.61 311.95Q173.33 311.59 175.2 311.92Q177.7 312.36 179.07 313.77Q179.83 314.55 180.08 315.46Q180.28 316.21 180.13 317.06Q180.07 317.39 179.95 317.71Q179.61 318.67 178.76 319.45Q177.66 320.47 175.49 321.89Q172.34 323.91 170.54 325.76ZM167.26 347.25Q168.74 348.46 170.91 348.85Q173.23 349.25 175.13 348.54Q175.87 348.26 176.54 347.81Q177.77 346.99 178.5 345.86Q179.21 344.77 179.46 343.38Q179.75 341.71 179.31 340.27Q178.98 339.2 178.24 338.25Q177.85 337.74 177.37 337.32Q175.78 335.88 173.28 335.44Q170.76 335 168.77 335.83Q168.22 336.06 167.7 336.39Q166.72 337.01 166.06 337.87Q165.13 339.09 164.83 340.8Q164.58 342.19 164.87 343.45Q165.16 344.77 166.04 345.96Q166.58 346.69 167.26 347.25Z" fill="#FFFFFF" fill-opacity="1.000000" fill-rule="evenodd"/>
		<path id="?" d="M168.18 330.83Q168.75 327.61 170.54 325.76Q172.34 323.91 175.49 321.89Q177.66 320.47 178.76 319.45Q179.89 318.41 180.13 317.06Q180.46 315.19 179.07 313.77Q177.7 312.36 175.2 311.92Q172.62 311.47 170.31 312.32Q168 313.18 166.32 315.14L157.62 308.3Q161.06 304.26 166.34 302.59Q171.63 300.93 178.46 302.13Q186.12 303.48 190.22 307.5Q194.33 311.52 193.31 317.26Q192.85 319.88 191.58 321.75Q190.32 323.62 188.81 324.8Q187.32 325.97 185.02 327.34Q182.5 328.83 181.23 329.97Q179.96 331.11 179.65 332.85L168.18 330.83ZM170.91 348.85Q167.75 348.29 166.04 345.96Q164.32 343.63 164.83 340.8Q165.34 337.89 167.7 336.39Q170.06 334.88 173.28 335.44Q176.51 336.01 178.24 338.25Q179.97 340.47 179.46 343.38Q178.95 346.21 176.54 347.81Q174.14 349.41 170.91 348.85Z" stroke="#202027" stroke-opacity="1.000000" stroke-width="0.549820"/>
		<rect id="Frame 2043683106" rx="20.104986" width="113.729599" height="151.866653" transform="translate(132.175720 240.893982) rotate(10.000001)" stroke="#202027" stroke-opacity="1.000000" stroke-width="0.681525"/>
		<rect id="Frame 2043683107" rx="20.104986" width="113.729599" height="151.866653" transform="translate(251.461853 261.927551) rotate(10.000001)" fill="#BCEC30" fill-opacity="1.000000"/>
		<path id="?" d="M290.58 347.2Q289.14 348.69 288.68 351.29L297.93 352.92Q298.08 352.09 298.5 351.43Q298.79 350.97 299.21 350.59Q300.24 349.68 302.27 348.48Q304.13 347.36 305.33 346.43Q306.54 345.47 307.56 343.97Q308.58 342.46 308.96 340.34Q309.38 337.95 308.7 335.93Q308.07 334.03 306.46 332.47Q303.15 329.23 296.97 328.14Q291.46 327.17 287.19 328.51Q284.51 329.35 282.42 330.97Q281.19 331.91 280.16 333.12L287.18 338.63Q288.1 337.56 289.26 336.89Q289.8 336.58 290.4 336.36Q290.92 336.17 291.45 336.06Q292.84 335.77 294.34 336.04Q296.36 336.39 297.47 337.53Q298.08 338.15 298.28 338.89Q298.44 339.5 298.32 340.18Q298.27 340.45 298.18 340.7Q297.9 341.48 297.22 342.1Q296.33 342.93 294.58 344.07Q292.04 345.7 290.58 347.2ZM287.94 364.53Q289.14 365.51 290.88 365.82Q292.76 366.15 294.29 365.58Q294.88 365.35 295.43 364.99Q296.42 364.33 297.01 363.41Q297.58 362.53 297.78 361.41Q298.01 360.07 297.66 358.91Q297.39 358.04 296.8 357.27Q296.48 356.86 296.1 356.52Q294.81 355.37 292.8 355.01Q290.77 354.65 289.16 355.32Q288.71 355.51 288.29 355.77Q287.51 356.27 286.97 356.97Q286.22 357.95 285.98 359.33Q285.78 360.45 286.01 361.47Q286.25 362.54 286.95 363.49Q287.39 364.08 287.94 364.53Z" fill="#FFFFFF" fill-opacity="1.000000" fill-rule="evenodd"/>
		<path id="?" d="M288.68 351.29Q289.14 348.69 290.58 347.2Q292.04 345.7 294.58 344.07Q296.33 342.93 297.22 342.1Q298.13 341.27 298.32 340.18Q298.59 338.67 297.47 337.53Q296.36 336.39 294.34 336.04Q292.26 335.67 290.4 336.36Q288.53 337.05 287.18 338.63L280.16 333.12Q282.94 329.85 287.19 328.51Q291.46 327.17 296.97 328.14Q303.15 329.23 306.46 332.47Q309.78 335.71 308.96 340.34Q308.58 342.46 307.56 343.97Q306.54 345.47 305.33 346.43Q304.13 347.36 302.27 348.48Q300.24 349.68 299.21 350.59Q298.18 351.51 297.93 352.92L288.68 351.29ZM290.88 365.82Q288.33 365.37 286.95 363.49Q285.57 361.61 285.98 359.33Q286.39 356.98 288.29 355.77Q290.2 354.55 292.8 355.01Q295.4 355.47 296.8 357.27Q298.19 359.06 297.78 361.41Q297.37 363.7 295.43 364.99Q293.49 366.28 290.88 365.82Z" stroke="#202027" stroke-opacity="1.000000" stroke-width="0.549820"/>
		<rect id="Frame 2043683107" rx="20.104986" width="113.729599" height="151.866653" transform="translate(251.461853 261.927551) rotate(10.000001)" stroke="#202027" stroke-opacity="1.000000" stroke-width="0.681525"/>
		<rect id="Frame 2043683108" rx="20.104986" width="113.729599" height="151.866653" transform="translate(370.748962 282.960999) rotate(10.000001)" fill="#BCEC30" fill-opacity="1.000000"/>
		<path id="?" d="M409.87 368.23Q408.43 369.72 407.97 372.32L417.22 373.95Q417.37 373.12 417.78 372.46Q418.08 372 418.5 371.63Q419.52 370.71 421.55 369.51Q423.41 368.4 424.61 367.46Q425.83 366.51 426.84 365Q427.87 363.49 428.24 361.37Q428.67 358.98 427.99 356.96Q427.35 355.07 425.75 353.5Q422.44 350.26 416.26 349.17Q410.75 348.2 406.48 349.54Q403.8 350.39 401.7 352Q400.48 352.94 399.45 354.15L406.47 359.67Q407.39 358.59 408.54 357.93Q409.09 357.62 409.68 357.39Q410.2 357.2 410.74 357.09Q412.13 356.8 413.63 357.07Q415.65 357.42 416.75 358.56Q417.37 359.19 417.57 359.93Q417.73 360.53 417.61 361.21Q417.56 361.48 417.47 361.74Q417.19 362.51 416.51 363.14Q415.61 363.96 413.87 365.11Q411.33 366.74 409.87 368.23ZM407.22 385.57Q408.42 386.55 410.17 386.86Q412.04 387.19 413.57 386.61Q414.17 386.39 414.72 386.02Q415.71 385.36 416.3 384.45Q416.87 383.56 417.06 382.44Q417.3 381.1 416.95 379.94Q416.68 379.07 416.08 378.31Q415.77 377.9 415.39 377.56Q414.1 376.4 412.09 376.04Q410.05 375.69 408.45 376.35Q408 376.54 407.58 376.81Q406.79 377.31 406.26 378Q405.51 378.99 405.26 380.36Q405.06 381.48 405.3 382.51Q405.54 383.57 406.24 384.53Q406.67 385.12 407.22 385.57Z" fill="#FFFFFF" fill-opacity="1.000000" fill-rule="evenodd"/>
		<path id="?" d="M407.97 372.32Q408.43 369.72 409.87 368.23Q411.33 366.74 413.87 365.11Q415.61 363.96 416.51 363.14Q417.41 362.3 417.61 361.21Q417.87 359.7 416.75 358.56Q415.65 357.42 413.63 357.07Q411.55 356.7 409.68 357.39Q407.82 358.09 406.47 359.67L399.45 354.15Q402.23 350.88 406.48 349.54Q410.75 348.2 416.26 349.17Q422.44 350.26 425.75 353.5Q429.06 356.74 428.24 361.37Q427.87 363.49 426.84 365Q425.83 366.51 424.61 367.46Q423.41 368.4 421.55 369.51Q419.52 370.71 418.5 371.63Q417.47 372.55 417.22 373.95L407.97 372.32ZM410.17 386.86Q407.62 386.41 406.24 384.53Q404.86 382.65 405.26 380.36Q405.68 378.02 407.58 376.81Q409.49 375.59 412.09 376.04Q414.69 376.5 416.08 378.31Q417.48 380.1 417.06 382.44Q416.66 384.73 414.72 386.02Q412.77 387.31 410.17 386.86Z" stroke="#202027" stroke-opacity="1.000000" stroke-width="0.549820"/>
		<rect id="Frame 2043683108" rx="20.104986" width="113.729599" height="151.866653" transform="translate(370.748962 282.960999) rotate(10.000001)" stroke="#202027" stroke-opacity="1.000000" stroke-width="0.681525"/>
		<g filter="url(#filter_22_1561_dd)">
			<rect id="Frame 2043683065" rx="20.786512" width="149.129974" height="198.612854" transform="translate(146.395569 58.097836) rotate(10.000000)" fill="#E1FF8F" fill-opacity="1.000000"/>
			<rect id="Frame 2043683065" rx="20.786512" width="149.129974" height="198.612854" transform="translate(146.395569 58.097836) rotate(10.000000)" stroke="#202027" stroke-opacity="1.000000" stroke-width="0.681525"/>
			<rect id="Frame 2043683065" rx="20.786512" width="149.129974" height="198.612854" transform="translate(146.395569 58.097836) rotate(10.000000)" stroke="#000000" stroke-opacity="0.200000" stroke-width="0.681525"/>
		</g>
		<path id="?" d="M197.01 169.33Q194.63 171.79 193.87 176.09L209.16 178.79Q209.4 177.41 210.09 176.32Q210.57 175.56 211.26 174.94Q212.96 173.42 216.32 171.44Q219.39 169.6 221.37 168.05Q223.38 166.48 225.06 163.99Q226.75 161.5 227.37 157.99Q228.07 154.04 226.95 150.7Q225.9 147.57 223.25 144.98Q217.78 139.63 207.56 137.83Q198.46 136.22 191.41 138.44Q186.97 139.84 183.51 142.5Q181.48 144.06 179.78 146.06L191.38 155.17Q192.9 153.4 194.81 152.3Q195.71 151.78 196.7 151.42Q197.56 151.1 198.44 150.92Q200.74 150.44 203.22 150.88Q206.55 151.47 208.38 153.35Q209.4 154.38 209.73 155.6Q209.99 156.6 209.79 157.73Q209.71 158.17 209.56 158.6Q209.1 159.87 207.97 160.91Q206.5 162.27 203.61 164.16Q199.41 166.86 197.01 169.33ZM192.63 197.98Q194.62 199.6 197.51 200.11Q200.6 200.65 203.13 199.7Q204.11 199.33 205.02 198.73Q206.65 197.64 207.63 196.13Q208.57 194.67 208.9 192.82Q209.29 190.6 208.7 188.68Q208.26 187.25 207.28 185.98Q206.75 185.3 206.12 184.74Q203.99 182.83 200.67 182.24Q197.31 181.65 194.65 182.75Q193.91 183.06 193.22 183.5Q191.92 184.33 191.04 185.48Q189.79 187.1 189.39 189.38Q189.06 191.23 189.45 192.92Q189.84 194.68 191.01 196.26Q191.72 197.24 192.63 197.98Z" fill="#FFFFFF" fill-opacity="1.000000" fill-rule="evenodd"/>
		<path id="?" d="M193.87 176.09Q194.63 171.79 197.01 169.33Q199.41 166.86 203.61 164.16Q206.5 162.27 207.97 160.91Q209.47 159.53 209.79 157.73Q210.23 155.23 208.38 153.35Q206.55 151.47 203.22 150.88Q199.78 150.27 196.7 151.42Q193.62 152.56 191.38 155.17L179.78 146.06Q184.37 140.66 191.41 138.44Q198.46 136.22 207.56 137.83Q217.78 139.63 223.25 144.98Q228.73 150.34 227.37 157.99Q226.75 161.5 225.06 163.99Q223.38 166.48 221.37 168.05Q219.39 169.6 216.32 171.44Q212.96 173.42 211.26 174.94Q209.57 176.46 209.16 178.79L193.87 176.09ZM197.51 200.11Q193.29 199.37 191.01 196.26Q188.72 193.15 189.39 189.38Q190.08 185.5 193.22 183.5Q196.37 181.48 200.67 182.24Q204.97 183 207.28 185.98Q209.58 188.94 208.9 192.82Q208.23 196.59 205.02 198.73Q201.8 200.87 197.51 200.11Z" stroke="#202027" stroke-opacity="1.000000" stroke-width="0.681525"/>
	</g>
</svg>
