<svg width="378.000000" height="314.000000" viewBox="0 0 378 314" fill="none" xmlns="http://www.w3.org/2000/svg" xmlns:xlink="http://www.w3.org/1999/xlink">
	<desc>
			Created with Pixso.
	</desc>
	<defs>
		<clipPath id="clip22_1454">
			<rect id="Обложка карточки" rx="29.684692" width="377.369385" height="313.369385" transform="translate(0.315307 0.315307)" fill="white" fill-opacity="0"/>
		</clipPath>
	</defs>
	<rect id="Обложка карточки" rx="29.684692" width="377.369385" height="313.369385" transform="translate(0.315307 0.315307)" fill="#271A58" fill-opacity="1.000000"/>
	<g clip-path="url(#clip22_1454)">
		<rect id="Frame 2043683080" rx="18.707916" width="100.832504" height="100.832504" transform="translate(13.836615 -95.669273) rotate(10.000000)" fill="#D9B6FF" fill-opacity="1.000000"/>
		<rect id="Frame 2043683080" rx="18.707916" width="100.832504" height="100.832504" transform="translate(13.836615 -95.669273) rotate(10.000000)" stroke="#271A58" stroke-opacity="1.000000" stroke-width="0.634167"/>
		<rect id="Frame 2043683097" rx="18.707916" width="100.832504" height="100.832504" transform="translate(121.333687 -76.714653) rotate(10.000000)" fill="#1FA46C" fill-opacity="1.000000"/>
		<rect id="Frame 2043683097" rx="18.707916" width="100.832504" height="100.832504" transform="translate(121.333687 -76.714653) rotate(10.000000)" stroke="#271A58" stroke-opacity="1.000000" stroke-width="0.634167"/>
		<rect id="Frame 2043683096" rx="18.707916" width="100.832504" height="100.832504" transform="translate(228.830750 -57.760067) rotate(10.000000)" fill="#565EEF" fill-opacity="1.000000"/>
		<rect id="Frame 2043683096" rx="18.707916" width="100.832504" height="100.832504" transform="translate(228.830750 -57.760067) rotate(10.000000)" stroke="#271A58" stroke-opacity="1.000000" stroke-width="0.634167"/>
		<rect id="Frame 2043683099" rx="18.707916" width="100.832504" height="100.832504" transform="translate(336.327820 -38.805477) rotate(10.000000)" fill="#00C1FF" fill-opacity="1.000000"/>
		<rect id="Frame 2043683099" rx="18.707916" width="100.832504" height="100.832504" transform="translate(336.327820 -38.805477) rotate(10.000000)" stroke="#271A58" stroke-opacity="1.000000" stroke-width="0.634167"/>
		<rect id="Frame 2043683103" rx="18.707916" width="100.832504" height="100.832504" transform="translate(-5.103815 11.750189) rotate(10.000000)" fill="#F25050" fill-opacity="1.000000"/>
		<rect id="Frame 2043683103" rx="18.707916" width="100.832504" height="100.832504" transform="translate(-5.103815 11.750189) rotate(10.000000)" stroke="#271A58" stroke-opacity="1.000000" stroke-width="0.634167"/>
		<rect id="Frame 2043683102" rx="18.707916" width="100.832504" height="100.832504" transform="translate(102.393257 30.704779) rotate(10.000000)" fill="#FFC700" fill-opacity="1.000000"/>
		<rect id="Frame 2043683102" rx="18.707916" width="100.832504" height="100.832504" transform="translate(102.393257 30.704779) rotate(10.000000)" stroke="#271A58" stroke-opacity="1.000000" stroke-width="0.634167"/>
		<rect id="Frame 2043683105" rx="18.707916" width="100.832504" height="100.832504" transform="translate(209.889343 49.659367) rotate(10.000000)" fill="#99D100" fill-opacity="1.000000"/>
		<rect id="Frame 2043683105" rx="18.707916" width="100.832504" height="100.832504" transform="translate(209.889343 49.659367) rotate(10.000000)" stroke="#271A58" stroke-opacity="1.000000" stroke-width="0.634167"/>
		<rect id="Frame 2043683107" rx="18.707916" width="100.832504" height="100.832504" transform="translate(317.386414 68.614082) rotate(10.000000)" fill="#AD61FF" fill-opacity="1.000000"/>
		<rect id="Frame 2043683107" rx="18.707916" width="100.832504" height="100.832504" transform="translate(317.386414 68.614082) rotate(10.000000)" stroke="#271A58" stroke-opacity="1.000000" stroke-width="0.634167"/>
		<rect id="Frame 2043683108" rx="18.707916" width="100.832504" height="100.832504" transform="translate(-24.045221 119.169807) rotate(10.000000)" fill="#565EEF" fill-opacity="1.000000"/>
		<rect id="Frame 2043683108" rx="18.707916" width="100.832504" height="100.832504" transform="translate(-24.045221 119.169807) rotate(10.000000)" stroke="#271A58" stroke-opacity="1.000000" stroke-width="0.634167"/>
		<rect id="Frame 2043683110" rx="18.707916" width="100.832504" height="100.832504" transform="translate(83.451851 138.124390) rotate(10.000000)" fill="#00C1FF" fill-opacity="1.000000"/>
		<rect id="Frame 2043683110" rx="18.707916" width="100.832504" height="100.832504" transform="translate(83.451851 138.124390) rotate(10.000000)" stroke="#271A58" stroke-opacity="1.000000" stroke-width="0.634167"/>
		<rect id="Frame 2043683112" rx="18.707916" width="100.832504" height="100.832504" transform="translate(190.948914 157.079041) rotate(10.000000)" fill="#FF6D00" fill-opacity="1.000000"/>
		<rect id="Frame 2043683112" rx="18.707916" width="100.832504" height="100.832504" transform="translate(190.948914 157.079041) rotate(10.000000)" stroke="#271A58" stroke-opacity="1.000000" stroke-width="0.634167"/>
		<rect id="Frame 2043683111" rx="18.707916" width="100.832504" height="100.832504" transform="translate(298.445984 176.033630) rotate(10.000000)" fill="#1FA46C" fill-opacity="1.000000"/>
		<rect id="Frame 2043683111" rx="18.707916" width="100.832504" height="100.832504" transform="translate(298.445984 176.033630) rotate(10.000000)" stroke="#271A58" stroke-opacity="1.000000" stroke-width="0.634167"/>
		<rect id="Frame 2043683115" rx="18.707916" width="100.832504" height="100.832504" transform="translate(-42.985653 226.589294) rotate(10.000000)" fill="#AD61FF" fill-opacity="1.000000"/>
		<rect id="Frame 2043683115" rx="18.707916" width="100.832504" height="100.832504" transform="translate(-42.985653 226.589294) rotate(10.000000)" stroke="#271A58" stroke-opacity="1.000000" stroke-width="0.634167"/>
		<rect id="Frame 2043683116" rx="18.707916" width="100.832504" height="100.832504" transform="translate(64.511421 245.543945) rotate(10.000000)" fill="#99D100" fill-opacity="1.000000"/>
		<rect id="Frame 2043683116" rx="18.707916" width="100.832504" height="100.832504" transform="translate(64.511421 245.543945) rotate(10.000000)" stroke="#271A58" stroke-opacity="1.000000" stroke-width="0.634167"/>
		<rect id="Frame 2043683117" rx="18.707916" width="100.832504" height="100.832504" transform="translate(172.007507 264.498291) rotate(10.000000)" fill="#FFC700" fill-opacity="1.000000"/>
		<rect id="Frame 2043683117" rx="18.707916" width="100.832504" height="100.832504" transform="translate(172.007507 264.498291) rotate(10.000000)" stroke="#271A58" stroke-opacity="1.000000" stroke-width="0.634167"/>
		<rect id="Frame 2043683118" rx="18.707916" width="100.832504" height="100.832504" transform="translate(279.504578 283.453125) rotate(10.000000)" fill="#D9B6FF" fill-opacity="1.000000"/>
		<rect id="Frame 2043683118" rx="18.707916" width="100.832504" height="100.832504" transform="translate(279.504578 283.453125) rotate(10.000000)" stroke="#271A58" stroke-opacity="1.000000" stroke-width="0.634167"/>
	</g>
</svg>
